<svg version="1.1" id="Layer_1" xmlns="http://www.w3.org/2000/svg" xmlns:xlink="http://www.w3.org/1999/xlink" x="0px" y="0px"
	 width="100%" viewBox="0 0 150 150" enable-background="new 0 0 150 150" xml:space="preserve">
<path fill="#FDFDFD" opacity="1.000000" stroke="none" 
	d="
M98.000000,151.000000 
	C65.333336,151.000000 33.166668,151.000000 1.000000,151.000000 
	C1.000000,101.000000 1.000000,51.000000 1.000000,1.000000 
	C51.000000,1.000000 101.000000,1.000000 151.000000,1.000000 
	C151.000000,51.000000 151.000000,101.000000 151.000000,151.000000 
	C133.500000,151.000000 116.000000,151.000000 98.000000,151.000000 
M44.520325,116.951691 
	C49.286598,121.054550 53.815311,125.484947 58.888557,129.164566 
	C63.595413,132.578430 67.426308,135.893951 66.112831,142.485962 
	C65.910233,143.502777 67.370903,144.850983 68.062363,146.045914 
	C68.683601,145.808762 69.304832,145.571609 69.926071,145.334442 
	C69.926071,138.875183 69.961052,132.415665 69.913628,125.956749 
	C69.882629,121.735092 71.721024,118.604118 75.286812,116.494698 
	C77.570900,115.143486 79.894920,113.828842 82.306824,112.730026 
	C92.206268,108.220039 101.919342,103.323128 108.601425,94.385757 
	C113.065445,88.415054 117.098602,82.073868 120.819199,75.607689 
	C125.675278,67.168114 131.113159,59.311863 138.773438,53.151466 
	C139.979980,52.181149 140.908127,50.864635 141.964996,49.708191 
	C139.038605,49.109608 136.532333,49.163174 134.296402,49.967880 
	C127.754959,52.322140 121.042160,54.436481 114.898895,57.615643 
	C98.084602,66.317101 84.001884,77.789383 78.290092,96.959305 
	C76.917282,101.566750 75.402916,106.141121 73.707932,110.638077 
	C73.177734,112.044754 71.841972,113.147797 70.874947,114.389824 
	C70.369102,111.024429 71.141037,108.153343 70.800819,105.420731 
	C69.079826,91.598198 74.092537,80.504105 82.973640,70.137703 
	C90.861565,60.930603 95.330322,49.826126 96.627617,37.521774 
	C97.635124,27.965977 99.244217,18.474072 100.527443,8.945896 
	C100.620056,8.258194 100.234673,7.506116 100.018379,6.548690 
	C99.038345,6.910003 98.398468,7.049802 97.855850,7.359831 
	C77.029686,19.259096 61.657009,51.489143 66.016632,75.039970 
	C69.389076,93.258003 65.701996,111.285988 65.293297,129.554794 
	C63.684677,127.006706 62.460377,124.373375 61.827671,121.604858 
	C60.755733,116.914375 60.277061,112.086174 59.162342,107.407990 
	C55.217991,90.854584 47.306755,76.706665 33.006943,66.915222 
	C28.570272,63.877323 23.415209,61.888599 18.589041,59.419537 
	C18.253426,59.870071 17.917810,60.320606 17.582195,60.771137 
	C27.532953,70.198952 30.749491,82.745697 34.626667,95.148537 
	C36.922432,102.492554 40.875366,109.318535 44.520325,116.951691 
M36.826653,45.440598 
	C35.608620,45.734447 34.390591,46.028297 33.172558,46.322147 
	C38.915981,47.129322 44.310715,47.980885 44.434261,55.850956 
	C46.158222,50.888687 48.504990,47.012745 54.508812,46.430111 
	C49.056957,45.584480 46.207417,42.729324 45.634640,39.078358 
	C42.955971,41.134220 40.278946,43.188820 36.826653,45.440598 
z"/>
<path fill="#080808" opacity="1.000000" stroke="none" 
	d="
M44.301727,116.664574 
	C40.875366,109.318535 36.922432,102.492554 34.626667,95.148537 
	C30.749491,82.745697 27.532953,70.198952 17.582195,60.771137 
	C17.917810,60.320606 18.253426,59.870071 18.589041,59.419537 
	C23.415209,61.888599 28.570272,63.877323 33.006943,66.915222 
	C47.306755,76.706665 55.217991,90.854584 59.162342,107.407990 
	C60.277061,112.086174 60.755733,116.914375 61.827671,121.604858 
	C62.460377,124.373375 63.684677,127.006706 65.293297,129.554794 
	C65.701996,111.285988 69.389076,93.258003 66.016632,75.039970 
	C61.657009,51.489143 77.029686,19.259096 97.855850,7.359831 
	C98.398468,7.049802 99.038345,6.910003 100.018379,6.548690 
	C100.234673,7.506116 100.620056,8.258194 100.527443,8.945896 
	C99.244217,18.474072 97.635124,27.965977 96.627617,37.521774 
	C95.330322,49.826126 90.861565,60.930603 82.973640,70.137703 
	C74.092537,80.504105 69.079826,91.598198 70.800819,105.420731 
	C71.141037,108.153343 70.369102,111.024429 70.874947,114.389824 
	C71.841972,113.147797 73.177734,112.044754 73.707932,110.638077 
	C75.402916,106.141121 76.917282,101.566750 78.290092,96.959305 
	C84.001884,77.789383 98.084602,66.317101 114.898895,57.615643 
	C121.042160,54.436481 127.754959,52.322140 134.296402,49.967880 
	C136.532333,49.163174 139.038605,49.109608 141.964996,49.708191 
	C140.908127,50.864635 139.979980,52.181149 138.773438,53.151466 
	C131.113159,59.311863 125.675278,67.168114 120.819199,75.607689 
	C117.098602,82.073868 113.065445,88.415054 108.601425,94.385757 
	C101.919342,103.323128 92.206268,108.220039 82.306824,112.730026 
	C79.894920,113.828842 77.570900,115.143486 75.286812,116.494698 
	C71.721024,118.604118 69.882629,121.735092 69.913628,125.956749 
	C69.961052,132.415665 69.926071,138.875183 69.926071,145.334442 
	C69.304832,145.571609 68.683601,145.808762 68.062363,146.045914 
	C67.370903,144.850983 65.910233,143.502777 66.112831,142.485962 
	C67.426308,135.893951 63.595413,132.578430 58.888557,129.164566 
	C53.815311,125.484947 49.286598,121.054550 44.301727,116.664574 
z"/>
<path fill="#151515" opacity="1.000000" stroke="none" 
	d="
M37.214287,45.342010 
	C40.278946,43.188820 42.955971,41.134220 45.634640,39.078358 
	C46.207417,42.729324 49.056957,45.584480 54.508812,46.430111 
	C48.504990,47.012745 46.158222,50.888687 44.434261,55.850956 
	C44.310715,47.980885 38.915981,47.129322 33.172558,46.322147 
	C34.390591,46.028297 35.608620,45.734447 37.214287,45.342010 
z"/>
</svg>